<?xml version="1.0" encoding="utf-8"?>
<!-- Generator: Adobe Illustrator 22.0.1, SVG Export Plug-In . SVG Version: 6.00 Build 0)  -->
<svg version="1.1" id="Ebene_1" xmlns="http://www.w3.org/2000/svg" xmlns:xlink="http://www.w3.org/1999/xlink" x="0px" y="0px"
	 viewBox="0 0 500 500" style="enable-background:new 0 0 500 500;" xml:space="preserve">
<style type="text/css">
	.st0{display:none;}
	.st1{display:inline;fill:#93278F;}
	.st2{display:inline;fill:#FBFBFB;}
	.st3{display:inline;}
	.st4{fill:#5C5C5C;}
	.st5{display:none;fill:#93278F;}
	.st6{fill:#FBFBFB;}
</style>
<g id="Ebene_2_1_" class="st0">
	<rect x="-67.9" y="-46.9" class="st1" width="667.5" height="601.5"/>
	<circle class="st2" cx="250" cy="250" r="250"/>
	<g class="st3">
		<polygon class="st4" points="251.8,536.9 216.3,536.9 216.3,268.8 253.7,265 253.7,289.7 251.8,291.7 		"/>
		<path class="st4" d="M253.7,145.9c-11.4,0-19.3-5.8-19.3-5.8l-2.5,58.5l20.7-0.1v3.5h-20.8l-0.5,11.8h14.3v3.8h-14.4l-0.4,12.1
			l23.1,1.9v-85.7H253.7z"/>
		<g>
			
				<ellipse transform="matrix(0.1891 -0.982 0.982 0.1891 98.8865 337.3475)" class="st4" cx="253.7" cy="108.8" rx="31.4" ry="31.4"/>
		</g>
		<polygon class="st4" points="253.7,259.3 164.3,266.9 164.3,228.9 253.7,236.5 		"/>
		<polygon class="st4" points="255.6,536.9 291,536.9 291,268.8 253.7,265 253.7,289.7 255.6,291.7 		"/>
		<path class="st4" d="M253.7,145.9c11.4,0,19.3-5.8,19.3-5.8l0.6,14.7h-9.2v3.8h9.3l0.4,9.4l-19.8,0.1v3.8l19.9,0.1l2.4,57.6
			l-23.1,1.9v-85.6H253.7z"/>
		<polygon class="st4" points="253.7,259.3 343,266.9 343,228.9 253.7,236.5 		"/>
	</g>
</g>
<g id="Ebene_2_2_">
	<rect x="-67.9" y="-46.9" class="st5" width="667.5" height="601.5"/>
	<g>
		<path class="st6" d="M251.6,332.3V500c1.4,0,2.8,0,4.1-0.1V332.3l-2.1-2.2L251.6,332.3z"/>
		<path class="st6" d="M250,0C111.9,0,0,111.9,0,250c0,125.5,92.4,229.4,212.9,247.3V307.4l40.8-4.1l40.7,4.1v188.7
			C411.3,475.1,500,372.9,500,250C500,111.9,388.1,0,250,0z M253.7,98.7c18.9,0,34.2,15.3,34.2,34.2c0,18.9-15.3,34.2-34.2,34.2
			c-18.9,0-34.2-15.3-34.2-34.2C219.5,114.1,234.8,98.7,253.7,98.7z M229.3,247.4l0.5-12.9h22.7v-3.8l-22.6,0.1l2.7-63.8
			c0,0,8.6,6.3,21,6.3c12.4,0,21-6.3,21-6.3l0.7,16h-10v4.1h10.1l0.4,10.2l-21.6,0.1v4.1l21.7,0.1l2.6,62.8l-24.7,2v0.1l-25.2-2.1
			l0.4-13.2h15.7v-4.1H229.3z M351,305.3l-97.3-8.3l-97.4,8.3v-41.4l97.4,8.3l97.3-8.3V305.3z"/>
	</g>
</g>
</svg>
